<svg xmlns="http://www.w3.org/2000/svg" viewBox="0 0 540.89 169.04"><defs><style>.cls-1{fill:#ed3f53;}</style></defs><title>logo_wide-red</title><g id="レイヤー_2" data-name="レイヤー 2"><g id="レイヤー_1-2" data-name="レイヤー 1"><path class="cls-1" d="M219.86,54,120.11,30.33l.09-.13c4.06-6.77,4.06-17.37,0-24.14C117.88,2.21,114.46,0,110.81,0s-7.08,2.21-9.39,6.06c-4.07,6.76-4.07,17.36,0,24.14a1.41,1.41,0,0,0,.1.15L3,54a3.9,3.9,0,0,0,.9,7.69,4.14,4.14,0,0,0,.92-.1L110.37,36.23l.44,0,.45,0,106.8,25.34a3.9,3.9,0,1,0,1.8-7.59ZM113.52,26.18a5.38,5.38,0,0,1-2,2.1l-.69-.16-.68.16a5.38,5.38,0,0,1-2-2.1c-2.58-4.29-2.58-11.81,0-16.11.84-1.4,1.88-2.28,2.71-2.28s1.86.87,2.7,2.28C116.1,14.37,116.1,21.89,113.52,26.18Z"/><path class="cls-1" d="M53.88,110q.45-.86.88-1.72a1.87,1.87,0,0,1,1.67-1h7.23s.89,2.31,1.13,2.9a1.89,1.89,0,0,1-1.74,2.6H55.56A1.88,1.88,0,0,1,53.88,110Zm-10,14.62q.55-.83,1.08-1.71a2,2,0,0,1,1.74-1H71.88a2,2,0,0,1,1.74,1q.53.87,1.08,1.71A2,2,0,0,1,73,127.83H45.59A2,2,0,0,1,43.9,124.65Zm33.43,17.67a.91.91,0,0,1-.91.91H39.93a.91.91,0,0,1-.91-.91V138a.91.91,0,0,1,.91-.91h36.5a.91.91,0,0,1,.91.91Zm28.19-5a7,7,0,0,0-3.66-3.37,65,65,0,0,1-11-6,39.19,39.19,0,0,1-6.27-5.88l-.19-.19h16a4.26,4.26,0,0,0,3.28-1.35,4.43,4.43,0,0,0,1.26-3.28,4.57,4.57,0,0,0-1.26-3.38,4.64,4.64,0,0,0-3.28-1.15H78.64a40.28,40.28,0,0,1-2.32-5.5H91.56a4.24,4.24,0,0,0,3.27-1.35,4.41,4.41,0,0,0,1.26-3.27,4.56,4.56,0,0,0-1.26-3.38,4.62,4.62,0,0,0-3.27-1.16H59.35q.67-2.31,1.35-4.82V93H94.64a4.28,4.28,0,0,0,3.28-1.35,4.43,4.43,0,0,0,1.25-3.27A4.59,4.59,0,0,0,97.92,85a4.66,4.66,0,0,0-3.28-1.15H62.73A8.35,8.35,0,0,1,63.11,82,5.51,5.51,0,0,0,62,77.75a6.47,6.47,0,0,0-3.76-1.93A5.45,5.45,0,0,0,54,76.88a5.21,5.21,0,0,0-2,3.86q-.3,1.54-.48,3.09H22.91a4.53,4.53,0,0,0-3.37,1.25,4.42,4.42,0,0,0-1.26,3.28A4.32,4.32,0,0,0,22.91,93H50c-.06.45-.16,1-.29,1.55-.38,1.15-.77,2.34-1.15,3.56H26.77a4.56,4.56,0,0,0-3.38,1.26,4.45,4.45,0,0,0-1.25,3.28,4.31,4.31,0,0,0,4.63,4.62H44.31a63.8,63.8,0,0,1-3.66,5.5H18.28A4.58,4.58,0,0,0,14.91,114a4.42,4.42,0,0,0-1.25,3.28,4.32,4.32,0,0,0,4.62,4.63H32.46c-1.55,1.35-3.15,2.66-4.82,4a105,105,0,0,1-12,8,6,6,0,0,0-2.79,3.47,5.64,5.64,0,0,0,.77,4.44,6,6,0,0,0,3.47,2.7,5.33,5.33,0,0,0,4.43-.68,66.64,66.64,0,0,0,6.65-4.43v21.3q0,6.75,6.75,6.75h47q6.75,0,6.75-6.75V139.74a70.61,70.61,0,0,0,8.68,4.73,6.11,6.11,0,0,0,4.82.29,5.91,5.91,0,0,0,3.28-3A6.19,6.19,0,0,0,105.53,137.33ZM77.34,157.59a.91.91,0,0,1-.91.91H39.93a.9.9,0,0,1-.9-.91v-4.35a.9.9,0,0,1,.9-.91h36.5a.91.91,0,0,1,.91.91Z"/><path class="cls-1" d="M207.05,90a13.3,13.3,0,0,0-8.45-2.72h-19.3c.38-1.76.7-3.55.94-5.35A6.74,6.74,0,0,0,179,77.47a5.59,5.59,0,0,0-3.66-1.69A4.93,4.93,0,0,0,171.68,77a5.52,5.52,0,0,0-1.88,4.06,36.6,36.6,0,0,1-2.09,10.05,31.27,31.27,0,0,1-5,9.14c-1.5,1.76-2.23,3.26-2.16,4.51a4.92,4.92,0,0,0,1.6,3.29,7.58,7.58,0,0,0,3.95,1.81,5.08,5.08,0,0,0,3.87-2,39.79,39.79,0,0,0,6.11-10.15H193a7.18,7.18,0,0,1,4.6,1.41c1,1,1.55,2.65,1.62,5,0,8.1,0,16.79-.19,26.07q-.56,14.2-1.43,18.53c-.56,2.89-1.36,4.81-2.44,5.75a6.1,6.1,0,0,1-3.19.75,21.84,21.84,0,0,1-7-1.5c-2.09-.56-3.71-.54-4.91.09a7.07,7.07,0,0,0-3,3.57,6.33,6.33,0,0,0,.47,4.7,7.28,7.28,0,0,0,3.95,3,29.41,29.41,0,0,0,10.92,1.6c4.13,0,7.21-.87,9.23-2.44a14.35,14.35,0,0,0,5.07-8.27,134.75,134.75,0,0,0,2.44-19.12q.67-12.22.66-40A8.81,8.81,0,0,0,207.05,90Z"/><path class="cls-1" d="M162.17,127.07a7.32,7.32,0,0,0-5.82-2.35h-4.29a.71.71,0,0,1-.71-.71v-5.46a.71.71,0,0,1,.71-.71h5.7a4.17,4.17,0,0,0,4.23-4.32,4.19,4.19,0,0,0-1.13-3.1,4.42,4.42,0,0,0-3.1-1.13h-5.7a.71.71,0,0,1-.71-.71v-5.46a.71.71,0,0,1,.71-.71h5.7A4.17,4.17,0,0,0,162,98.09a4.19,4.19,0,0,0-1.13-3.1,4.44,4.44,0,0,0-3.1-1.15h-5.7a.71.71,0,0,1-.71-.71V87.31a.71.71,0,0,1,.71-.71h7.2a4.92,4.92,0,0,0,3.48-1.32,4.61,4.61,0,0,0,1.22-3,3.89,3.89,0,0,0-1.32-3A4.58,4.58,0,0,0,159.26,78H131c-2.63,0-4.6.61-5.92,2a8.33,8.33,0,0,0-2.28,6.11v37.74a9.72,9.72,0,0,0,2.47,6.76c1.55,1.76,3.88,2.63,7,2.63h19a3,3,0,0,1,2.16.94,2.41,2.41,0,0,1,.87,2.07v5.14a.71.71,0,0,1-.71.71H125.88a3.35,3.35,0,0,0-3.35,3.35v2.3a3.35,3.35,0,0,0,3.35,3.35h28.4v1.64a4,4,0,0,1-1.15,3.38,1.75,1.75,0,0,1-.75.47,10.89,10.89,0,0,1-1.13.09h-1.6a6.27,6.27,0,0,0-4.23.66,5.25,5.25,0,0,0-2.16,3.19,5.07,5.07,0,0,0,.66,3.76,6,6,0,0,0,3.76,2.25c1.69.26,3,.42,3.95.47s2.28-.09,4.34-.28a6,6,0,0,0,3.1-1.22,10.51,10.51,0,0,0,3.95-4.42,12.37,12.37,0,0,0,1.32-5.73V132.7A8,8,0,0,0,162.17,127.07Zm-21.4-4.28a2,2,0,0,1-1.94,2h-3a2.7,2.7,0,0,1-2.65-2.75v-1.63a2.7,2.7,0,0,1,2.65-2.75h3a2,2,0,0,1,1.94,2Zm.15-15.68a2.18,2.18,0,0,1-2.18,2.18h-3.28a2.18,2.18,0,0,1-2.18-2.18v-2.53a2.18,2.18,0,0,1,2.18-2.18h3.28a2.18,2.18,0,0,1,2.18,2.18Zm0-15.4A1.94,1.94,0,0,1,139,93.66h-3A2.65,2.65,0,0,1,133.29,91V89.43a2.65,2.65,0,0,1,2.65-2.65h3a1.94,1.94,0,0,1,1.94,1.94Z"/><path class="cls-1" d="M188.05,108.73H174.22c-4.39,0-6.6,2.18-6.6,6.58v26.63c0,4.39,2.21,6.58,6.6,6.58h13.83c4.39,0,6.58-2.18,6.58-6.58V115.3C194.63,110.91,192.44,108.73,188.05,108.73Zm-2.48,28.07a1.42,1.42,0,0,1-1.42,1.42h-5.09a1.42,1.42,0,0,1-1.42-1.42V120.44a1.42,1.42,0,0,1,1.42-1.42h5.09a1.42,1.42,0,0,1,1.42,1.42Z"/><path class="cls-1" d="M238.76,86.1A5,5,0,0,0,233.71,91v30.32h0a5.23,5.23,0,0,0,2.54,4.87c4.62,2.58,9.33-.6,9.34-4.85h0V101.55a3.16,3.16,0,0,1,3.2-3.12h32.83a4.09,4.09,0,0,1,4.15,4v3.43q-.11,13.8-4.27,23a46.65,46.65,0,0,1-9.88,14.7,38.9,38.9,0,0,1-11.61,8,57.21,57.21,0,0,1-12.15,3.62h0a6.33,6.33,0,1,0,0,12.66h0a6.63,6.63,0,0,0,2.14-.37,68.89,68.89,0,0,0,8.29-2.22,71.34,71.34,0,0,0,12.47-5.66,48.76,48.76,0,0,0,12.8-10.86,53.31,53.31,0,0,0,9.77-17.47q3.62-10.35,3.83-25.17V91a5,5,0,0,0-5.05-4.92Z"/><path class="cls-1" d="M369.82,125.58a6.44,6.44,0,0,0-6.51-6.35h-41v0h0a6.35,6.35,0,1,0,0,12.7h41A6.44,6.44,0,0,0,369.82,125.58Z"/><path class="cls-1" d="M417.38,85.56l-.29,1.22A4.31,4.31,0,0,0,421.43,92h26.33a4.36,4.36,0,0,1,4.45,4.26v9.82c0,.13,0,.27,0,.4a75.69,75.69,0,0,1-5.94,24.4,59.47,59.47,0,0,1-11.48,17.52,68.14,68.14,0,0,1-13.75,11,99.52,99.52,0,0,1-13.21,6.69q-2.58,1.05-4.92,1.88a4.43,4.43,0,0,1-6-4v-3.62a4.25,4.25,0,0,1,2.86-4A91,91,0,0,0,410,152.08a60.59,60.59,0,0,0,13.26-9.37,55.18,55.18,0,0,0,11.59-14.89q4-7.32,5.28-19.36a4.35,4.35,0,0,0-4.42-4.74h-22a4.51,4.51,0,0,0-3.84,2.08A88.07,88.07,0,0,1,398.56,121q-1.07,1.09-2.09,2.06c-2.8,2.7-7.6.8-7.6-3v-4.27a4.16,4.16,0,0,1,1.19-2.93,59.69,59.69,0,0,0,6.12-7.42,64,64,0,0,0,6.39-11.49,60.43,60.43,0,0,0,3.37-10.19,4.39,4.39,0,0,1,4.32-3.31H413A4.31,4.31,0,0,1,417.38,85.56Z"/><path class="cls-1" d="M539.12,158.24a6.6,6.6,0,0,0-3.95-2c-5.85-6.37-19.5-21.93-22.55-26.34a2.52,2.52,0,0,1-.09-2.73,160.25,160.25,0,0,0,10-19.95,100.87,100.87,0,0,0,5.74-17.89,2.6,2.6,0,0,0-2.6-3.1H474.05a2.61,2.61,0,0,0-2.65,2.58V96a2.61,2.61,0,0,0,2.65,2.58h35.24a2.6,2.6,0,0,1,2.49,3.48,104.84,104.84,0,0,1-12.24,23.74,133.13,133.13,0,0,1-15.86,18.91c-4.87,4.71-9.92,7.56-15.14,10.88a2.55,2.55,0,0,0-1.21,2.15v8.07c0,2,2.12,3,4,2.21,5.25-2.26,24.37-16.25,31-26.62a2.62,2.62,0,0,1,4.27.11c2.84,4.2,13.83,15.9,21.74,23.82a6.35,6.35,0,0,0,1.1,1.63,6.73,6.73,0,0,0,9.33.33A6.31,6.31,0,0,0,539.12,158.24Z"/></g></g></svg>