<svg xmlns="http://www.w3.org/2000/svg" viewBox="0 0 623 169.25"><defs><style>.cls-1{fill:#fff;}.cls-2{fill:none;stroke:#fff;stroke-miterlimit:10;}</style></defs><title>logo_wide</title><g id="レイヤー_2" data-name="レイヤー 2"><g id="レイヤー_1-2" data-name="レイヤー 1"><path class="cls-1" d="M219.86,54,120.11,30.33l.09-.13c4.06-6.77,4.06-17.37,0-24.14C117.88,2.21,114.46,0,110.81,0s-7.08,2.21-9.39,6.06c-4.07,6.76-4.07,17.36,0,24.14a1.41,1.41,0,0,0,.1.15L3,54a3.9,3.9,0,0,0,.9,7.69,4.14,4.14,0,0,0,.92-.1L110.37,36.23l.44,0,.45,0,106.8,25.34a3.9,3.9,0,1,0,1.8-7.59ZM113.52,26.18a5.38,5.38,0,0,1-2,2.1l-.69-.16-.68.16a5.38,5.38,0,0,1-2-2.1c-2.58-4.29-2.58-11.81,0-16.11.84-1.4,1.88-2.28,2.71-2.28s1.86.87,2.7,2.28C116.1,14.37,116.1,21.89,113.52,26.18Z"/><path class="cls-1" d="M207.05,90a13.3,13.3,0,0,0-8.45-2.72h-19.3c.38-1.76.7-3.55.94-5.35A6.74,6.74,0,0,0,179,77.47a5.59,5.59,0,0,0-3.66-1.69A4.93,4.93,0,0,0,171.68,77a5.52,5.52,0,0,0-1.88,4.06,36.6,36.6,0,0,1-2.09,10.05,31.27,31.27,0,0,1-5,9.14c-1.5,1.76-2.23,3.26-2.16,4.51a4.92,4.92,0,0,0,1.6,3.29,7.58,7.58,0,0,0,3.95,1.81,5.08,5.08,0,0,0,3.87-2,39.79,39.79,0,0,0,6.11-10.15H193a7.18,7.18,0,0,1,4.6,1.41c1,1,1.55,2.65,1.62,5,0,8.1,0,16.79-.19,26.07q-.56,14.2-1.43,18.53c-.56,2.89-1.36,4.81-2.44,5.75a6.1,6.1,0,0,1-3.19.75,21.84,21.84,0,0,1-7-1.5c-2.09-.56-3.71-.54-4.91.09a7.07,7.07,0,0,0-3,3.57,6.33,6.33,0,0,0,.47,4.7,7.28,7.28,0,0,0,3.95,3,29.41,29.41,0,0,0,10.92,1.6c4.13,0,7.21-.87,9.23-2.44a14.35,14.35,0,0,0,5.07-8.27,134.75,134.75,0,0,0,2.44-19.12q.67-12.22.66-40A8.81,8.81,0,0,0,207.05,90Z"/><path class="cls-1" d="M162.17,127.07a7.32,7.32,0,0,0-5.82-2.35h-4.29a.71.71,0,0,1-.71-.71v-5.46a.71.71,0,0,1,.71-.71h5.7a4.17,4.17,0,0,0,4.23-4.32,4.19,4.19,0,0,0-1.13-3.1,4.42,4.42,0,0,0-3.1-1.13h-5.7a.71.71,0,0,1-.71-.71v-5.46a.71.71,0,0,1,.71-.71h5.7A4.17,4.17,0,0,0,162,98.09a4.19,4.19,0,0,0-1.13-3.1,4.44,4.44,0,0,0-3.1-1.15h-5.7a.71.71,0,0,1-.71-.71V87.31a.71.71,0,0,1,.71-.71h7.2a4.92,4.92,0,0,0,3.48-1.32,4.61,4.61,0,0,0,1.22-3,3.89,3.89,0,0,0-1.32-3A4.58,4.58,0,0,0,159.26,78H131c-2.63,0-4.6.61-5.92,2a8.33,8.33,0,0,0-2.28,6.11v37.74a9.72,9.72,0,0,0,2.47,6.76c1.55,1.76,3.88,2.63,7,2.63h19a3,3,0,0,1,2.16.94,2.41,2.41,0,0,1,.87,2.07v5.14a.71.71,0,0,1-.71.71H125.88a3.35,3.35,0,0,0-3.35,3.35v2.3a3.35,3.35,0,0,0,3.35,3.35h28.4v1.64a4,4,0,0,1-1.15,3.38,1.75,1.75,0,0,1-.75.47,10.89,10.89,0,0,1-1.13.09h-1.6a6.27,6.27,0,0,0-4.23.66,5.25,5.25,0,0,0-2.16,3.19,5.07,5.07,0,0,0,.66,3.76,6,6,0,0,0,3.76,2.25c1.69.26,3,.42,3.95.47s2.28-.09,4.34-.28a6,6,0,0,0,3.1-1.22,10.51,10.51,0,0,0,3.95-4.42,12.37,12.37,0,0,0,1.32-5.73V132.7A8,8,0,0,0,162.17,127.07Zm-21.4-4.28a2,2,0,0,1-1.94,2h-3a2.7,2.7,0,0,1-2.65-2.75v-1.63a2.7,2.7,0,0,1,2.65-2.75h3a2,2,0,0,1,1.94,2Zm.15-15.68a2.18,2.18,0,0,1-2.18,2.18h-3.28a2.18,2.18,0,0,1-2.18-2.18v-2.53a2.18,2.18,0,0,1,2.18-2.18h3.28a2.18,2.18,0,0,1,2.18,2.18Zm0-15.4A1.94,1.94,0,0,1,139,93.66h-3A2.65,2.65,0,0,1,133.29,91V89.43a2.65,2.65,0,0,1,2.65-2.65h3a1.94,1.94,0,0,1,1.94,1.94Z"/><path class="cls-1" d="M188.05,108.73H174.22c-4.39,0-6.6,2.18-6.6,6.58v26.63c0,4.39,2.21,6.58,6.6,6.58h13.83c4.39,0,6.58-2.18,6.58-6.58V115.3C194.63,110.91,192.44,108.73,188.05,108.73Zm-2.48,28.07a1.42,1.42,0,0,1-1.42,1.42h-5.09a1.42,1.42,0,0,1-1.42-1.42V120.44a1.42,1.42,0,0,1,1.42-1.42h5.09a1.42,1.42,0,0,1,1.42,1.42Z"/><path class="cls-1" d="M238.76,86.1A5,5,0,0,0,233.71,91v30.32h0a5.23,5.23,0,0,0,2.54,4.87c4.62,2.58,9.33-.6,9.34-4.85h0V101.55a3.16,3.16,0,0,1,3.2-3.12h32.83a4.09,4.09,0,0,1,4.15,4v3.43q-.11,13.8-4.27,23a46.65,46.65,0,0,1-9.88,14.7,38.9,38.9,0,0,1-11.61,8,57.21,57.21,0,0,1-12.15,3.62h0a6.33,6.33,0,1,0,0,12.66h0a6.63,6.63,0,0,0,2.14-.37,68.89,68.89,0,0,0,8.29-2.22,71.34,71.34,0,0,0,12.47-5.66,48.76,48.76,0,0,0,12.8-10.86,53.31,53.31,0,0,0,9.77-17.47q3.62-10.35,3.83-25.17V91a5,5,0,0,0-5.05-4.92Z"/><path class="cls-1" d="M369.82,125.58a6.44,6.44,0,0,0-6.51-6.35h-41v0h0a6.35,6.35,0,1,0,0,12.7h41A6.44,6.44,0,0,0,369.82,125.58Z"/><path class="cls-1" d="M417.38,85.56l-.29,1.22A4.31,4.31,0,0,0,421.43,92h26.33a4.36,4.36,0,0,1,4.45,4.26v9.82c0,.13,0,.27,0,.4a75.69,75.69,0,0,1-5.94,24.4,59.47,59.47,0,0,1-11.48,17.52,68.14,68.14,0,0,1-13.75,11,99.52,99.52,0,0,1-13.21,6.69q-2.58,1.05-4.92,1.88a4.43,4.43,0,0,1-6-4v-3.62a4.25,4.25,0,0,1,2.86-4A91,91,0,0,0,410,152.08a60.59,60.59,0,0,0,13.26-9.37,55.18,55.18,0,0,0,11.59-14.89q4-7.32,5.28-19.36a4.35,4.35,0,0,0-4.42-4.74h-22a4.51,4.51,0,0,0-3.84,2.08A88.07,88.07,0,0,1,398.56,121q-1.07,1.09-2.09,2.06c-2.8,2.7-7.6.8-7.6-3v-4.27a4.16,4.16,0,0,1,1.19-2.93,59.69,59.69,0,0,0,6.12-7.42,64,64,0,0,0,6.39-11.49,60.43,60.43,0,0,0,3.37-10.19,4.39,4.39,0,0,1,4.32-3.31H413A4.31,4.31,0,0,1,417.38,85.56Z"/><path class="cls-1" d="M539.12,158.24a6.6,6.6,0,0,0-3.95-2c-5.85-6.37-19.5-21.93-22.55-26.34a2.52,2.52,0,0,1-.09-2.73,160.25,160.25,0,0,0,10-19.95,100.87,100.87,0,0,0,5.74-17.89,2.6,2.6,0,0,0-2.6-3.1H474.05a2.61,2.61,0,0,0-2.65,2.58V96a2.61,2.61,0,0,0,2.65,2.58h35.24a2.6,2.6,0,0,1,2.49,3.48,104.84,104.84,0,0,1-12.24,23.74,133.13,133.13,0,0,1-15.86,18.91c-4.87,4.71-9.92,7.56-15.14,10.88a2.55,2.55,0,0,0-1.21,2.15v8.07c0,2,2.12,3,4,2.21,5.25-2.26,24.37-16.25,31-26.62a2.62,2.62,0,0,1,4.27.11c2.84,4.2,13.83,15.9,21.74,23.82a6.35,6.35,0,0,0,1.1,1.63,6.73,6.73,0,0,0,9.33.33A6.31,6.31,0,0,0,539.12,158.24Z"/><path class="cls-1" d="M606.78,68c-.79.18-1.59.36-2.38.52V62.71a43.59,43.59,0,0,1-5,.76v5.79c-.79.07-1.59.1-2.38.1V56c.79,0,1.59,0,2.38-.1v5.48a43.59,43.59,0,0,0,5-.76V55.17c.79-.16,1.59-.34,2.38-.52Z"/><path class="cls-1" d="M621.67,65.37c-.85,0-1.7,0-2.54.12l-1.05-3.06c-1.69.2-3.38.53-5.08.9l-1,3.41-2,.48c1.46-4.8,2.92-9.59,4.38-14.33,1-.2,2-.37,2.93-.51C618.71,56.61,620.19,60.92,621.67,65.37Zm-4.24-4.79q-1-2.84-1.92-5.64-1,3.15-1.92,6.33C614.87,61,616.15,60.76,617.43,60.58Z"/><path class="cls-2" d="M596,76.88l26.86-7.19"/><path class="cls-1" d="M607.27,98.32c-.84.22-1.68.44-2.51.64q-1-2.49-2.05-5c-1.12.22-2.23.41-3.35.52v5.48c-.79.08-1.59.12-2.38.12V86.72a29,29,0,0,0,5.72-.64c1.59-.32,2.76-.27,3.51.27a2.88,2.88,0,0,1,1.12,2.52A4.77,4.77,0,0,1,605,93Zm-7.91-5.79c1-.1,2-.25,3-.44a3.37,3.37,0,0,0,1.91-1,2.38,2.38,0,0,0,.63-1.65,1.4,1.4,0,0,0-.62-1.27,2.33,2.33,0,0,0-1.73-.17c-1.05.21-2.1.37-3.15.48Z"/><path class="cls-1" d="M619.76,82.66v8.57a7.31,7.31,0,0,1-.39,2.68,3.94,3.94,0,0,1-1.49,1.69,6.65,6.65,0,0,1-2.7,1,5.56,5.56,0,0,1-2.65,0A2.44,2.44,0,0,1,611,95.34a5.62,5.62,0,0,1-.45-2.49V84.11c.81-.21,1.62-.41,2.43-.59v8.57c0,1.17.24,1.89.73,2.15a2.57,2.57,0,0,0,1.7.23,3.17,3.17,0,0,0,1.78-.83,3.23,3.23,0,0,0,.67-2.33V82.74C618.5,82.69,619.13,82.66,619.76,82.66Z"/><path class="cls-2" d="M596,107.51l26.86-7.19"/><path class="cls-1" d="M607.36,129.06c-.89.23-1.77.45-2.66.65q-1.39-3.07-2.79-6.22-1.28,1.93-2.55,3.76v3.37c-.79.07-1.59.12-2.38.12V117.41c.79,0,1.59,0,2.38-.12v7c.3-.5.52-.86.66-1.06,1.46-2.18,2.92-4.46,4.38-6.79.8-.18,1.61-.38,2.41-.58-1,1.73-2.09,3.44-3.13,5.12C604.9,123.72,606.13,126.4,607.36,129.06Z"/><path class="cls-1" d="M615,127.42a4.07,4.07,0,0,1-4.1-1.06,6.53,6.53,0,0,1-1.47-4.55,9.35,9.35,0,0,1,1.56-5.27,6.27,6.27,0,0,1,4.11-2.89,3.92,3.92,0,0,1,4.07,1.43,7.59,7.59,0,0,1,1.49,4.85,7.89,7.89,0,0,1-1.55,5A6.54,6.54,0,0,1,615,127.42Zm0-1.94a3.48,3.48,0,0,0,2.18-1.43,9.12,9.12,0,0,0,.15-7.52,2,2,0,0,0-2.28-.94c-2,.4-3.06,2.33-3.06,5.64a6,6,0,0,0,.78,3.47A2.05,2.05,0,0,0,615,125.49Z"/><path class="cls-2" d="M596,138.14l26.86-7.19"/><path class="cls-1" d="M608.57,159.39l-2.35.53q0-5.84,0-11.67-1.77,6.22-3.54,12.37l-1.21.2q-1.78-5.57-3.56-11.29v11.67q-.94.06-1.88.06V147.92a33.5,33.5,0,0,0,3.6-.21q1.34,4.15,2.68,8.21,1.31-4.51,2.63-9.08c1.21-.25,2.41-.52,3.62-.79Z"/><path class="cls-1" d="M622.3,157.25c-.85,0-1.7,0-2.54.11l-1.05-3.08c-1.69.18-3.38.47-5.08.82l-1,3.39-2,.45c1.46-4.77,2.92-9.54,4.38-14.25,1-.18,2-.34,2.93-.46C619.35,148.48,620.83,152.81,622.3,157.25Zm-4.24-4.82q-1-2.85-1.92-5.67-1,3.13-1.92,6.29C615.5,152.81,616.78,152.59,618.07,152.43Z"/><path class="cls-2" d="M596,168.77l26.86-7.19"/><path class="cls-1" d="M53.71,110.64q.45-.86.88-1.72a1.87,1.87,0,0,1,1.67-1H63.5s.89,2.31,1.13,2.9a1.89,1.89,0,0,1-1.74,2.6H55.4A1.88,1.88,0,0,1,53.71,110.64Zm-10,14.62q.55-.83,1.08-1.71a2,2,0,0,1,1.74-1H71.72a2,2,0,0,1,1.74,1q.53.87,1.08,1.71a2,2,0,0,1-1.69,3.17H45.42A2,2,0,0,1,43.73,125.25Zm33.43,17.67a.91.91,0,0,1-.91.91H39.76a.91.91,0,0,1-.91-.91v-4.35a.91.91,0,0,1,.91-.91h36.5a.91.91,0,0,1,.91.91Zm28.19-5a7,7,0,0,0-3.66-3.37,65,65,0,0,1-11-6,39.19,39.19,0,0,1-6.27-5.88l-.19-.19h16a4.26,4.26,0,0,0,3.28-1.35,4.43,4.43,0,0,0,1.26-3.28,4.57,4.57,0,0,0-1.26-3.38,4.64,4.64,0,0,0-3.28-1.15H78.47a40.28,40.28,0,0,1-2.32-5.5H91.39a4.24,4.24,0,0,0,3.27-1.35,4.41,4.41,0,0,0,1.26-3.27,4.56,4.56,0,0,0-1.26-3.38,4.62,4.62,0,0,0-3.27-1.16H59.18q.67-2.31,1.35-4.82v-.29H94.47a4.28,4.28,0,0,0,3.28-1.35A4.43,4.43,0,0,0,99,89a4.59,4.59,0,0,0-1.25-3.38,4.66,4.66,0,0,0-3.28-1.15H62.56a8.35,8.35,0,0,1,.38-1.84,5.51,5.51,0,0,0-1.15-4.24A6.47,6.47,0,0,0,58,76.42a5.45,5.45,0,0,0-4.15,1.06,5.21,5.21,0,0,0-2,3.86q-.3,1.54-.48,3.09H22.74a4.53,4.53,0,0,0-3.37,1.25A4.42,4.42,0,0,0,18.11,89a4.32,4.32,0,0,0,4.63,4.62H49.83c-.06.45-.16,1-.29,1.55-.38,1.15-.77,2.34-1.15,3.56H26.6A4.56,4.56,0,0,0,23.22,100,4.45,4.45,0,0,0,22,103.23a4.31,4.31,0,0,0,4.63,4.62H44.14a63.8,63.8,0,0,1-3.66,5.5H18.11a4.58,4.58,0,0,0-3.37,1.25,4.42,4.42,0,0,0-1.25,3.28,4.32,4.32,0,0,0,4.62,4.63H32.29c-1.55,1.35-3.15,2.66-4.82,4a105,105,0,0,1-12,8,6,6,0,0,0-2.79,3.47,5.64,5.64,0,0,0,.77,4.44,6,6,0,0,0,3.47,2.7,5.33,5.33,0,0,0,4.43-.68A66.64,66.64,0,0,0,28,140v21.3Q28,168,34.79,168h47q6.75,0,6.75-6.75V140.34a70.61,70.61,0,0,0,8.68,4.73,6.11,6.11,0,0,0,4.82.29,5.91,5.91,0,0,0,3.28-3A6.19,6.19,0,0,0,105.36,137.93ZM77.17,158.19a.91.91,0,0,1-.91.91H39.76a.9.9,0,0,1-.9-.91v-4.35a.9.9,0,0,1,.9-.91h36.5a.91.91,0,0,1,.91.91Z"/></g></g></svg>