<svg xmlns="http://www.w3.org/2000/svg" viewBox="0 0 355.06 70.41"><defs><style>.cls-1{fill:#eba97c;}.cls-2{fill:#040000;}.cls-3{fill:#231815;}</style></defs><title>img_logo</title><g id="レイヤー_2" data-name="レイヤー 2"><g id="レイヤー_1-2" data-name="レイヤー 1"><path class="cls-1" d="M53.49,28.7l-8,6.29,5,7.13L46.28,56.79,33.37,66.85H0l3.35-6.71,13-45.28V8.16h33l7.21,9.89ZM35,42.12l-2.52-1.68H22.47l-1.09.84-4,13.83.92,1.26h9.81l3.35-1.68,2.93-2.93,1.93-6.71ZM41.5,19.48,39,17.8H28.93l-1.09.84-3.1,10.9.59.84H35.64L39,28.7l2.93-2.93.84-3.35Z"/><path class="cls-1" d="M99.77,13.61V60.14l1.43,6.71H85.27L88,60.14V53.44l-.59-.84H71.18L70,53.44l-3.35,6.71-1.09,6.71H49l5.28-6.71L79.65,13.61V8.16h23ZM76.3,41.7l.59.84H86.94L88,41.7V19.9l.42-2.52Z"/><path class="cls-1" d="M150.08,27V58.89l2.68,8H137.92V37.51h-2.1L128,43.37l-1.26,1.51-4.36,15.26v6.71H106.48l3.35-6.71,13-45.28V8.16h15.93l-3.35,6.71-4,13.84-.84,1.68L153,13.19l2.52-5h12.16l1.68,3.77Z"/><path class="cls-1" d="M219.24,14.87,208.93,50.75v4.78L194.26,66.85h-21.8l-8-11.07,2.52-5,10.31-35.89V8.16h15.93l-3.35,6.71L179.42,51.34l1.26,2.93L183.19,56h6.71l3.35-1.68,2.93-2.93,10.48-36.47V8.16H222.6Z"/><path class="cls-1" d="M260.32,18.22H249l-3.35,1.68-2.35,2.35-1.17,4.36,2,2.93,11.57,4.19,5.45,8L257,56.37,243.13,66.85H219.66V53L227.2,56h11.74l3.35-1.68L245,51.59l1.68-6.12-2-2.93-11.57-4.19-5.45-8L231,18.64,244.9,8.16H267V20.74Z"/><path class="cls-1" d="M323.2,14.87,312.89,50.75v4.78L298.22,66.85h-21.8l-8-11.07,2.52-5,10.31-35.89V8.16h15.93l-3.35,6.71L283.38,51.34l1.26,2.93L287.15,56h6.71l3.35-1.68,2.94-2.93,10.48-36.47V8.16h15.93Z"/><path class="cls-1" d="M351.71,14.87l-13,45.28v6.71H322.78l3.35-6.71,13-45.28V8.16h15.93Z"/><path class="cls-2" d="M64.85,22.38l2.8-1.4a24.51,24.51,0,0,1,7,3.5q2.8,2.1,2.8,4.2a8.63,8.63,0,0,1-2.1,4.89q-2.1,2.8-7.69,4.2a47.86,47.86,0,0,0-9.79,3.5q-4.2,2.1-16.78,3.5l-1.4-1.4a151.78,151.78,0,0,1,14-6.29,33.11,33.11,0,0,0,9.09-4.89Q66.24,29.37,64.85,22.38Zm21-1.4,1.4-1.4q8.39,1.4,13.29,4.89t4.89,7a7.56,7.56,0,0,1-2.1,5.59q-2.1,2.1-5.59-.7a19.36,19.36,0,0,1-5.59-7.69A17.1,17.1,0,0,0,85.82,21Zm7-14,1.4-1.4q5.59,2.8,7,5.59t-1.4,4.89q-2.8,2.1-3.5-1.4A22.1,22.1,0,0,0,92.82,7ZM98.41,1.4,99.81,0q5.59,2.8,7,6.29t-1.4,4.89q-2.8,1.4-3.5-2.1A22.1,22.1,0,0,0,98.41,1.4Z"/><path class="cls-2" d="M123,49.43,121.6,48q7-4.2,9.79-8.39a98.06,98.06,0,0,1,6.29-8.39q3.5-4.2,3.5-7.69a12,12,0,0,1,.7-4.89,2.82,2.82,0,0,1,2.8-1.4,7.53,7.53,0,0,1,4.2,1.4q2.1,1.4,2.1,2.8v2.8q0,1.4,2.8,1.4a17.18,17.18,0,0,0,6.29-1.4q3.5-1.4,5.59-.7a8.82,8.82,0,0,1,3.5,2.1,4.75,4.75,0,0,1,1.4,3.5,2.74,2.74,0,0,1-2.1,2.8q-2.1.7-4.89,4.89a97.9,97.9,0,0,1-7.69,9.79q-4.9,5.59-14.68,12.59T116,70.41l-1.4-1.4q8.39-2.8,12.59-6.29a89.05,89.05,0,0,1,9.79-7,42.34,42.34,0,0,0,9.79-8.39q4.2-4.89,7-8.39t2.8-5.59q0-2.1-2.8-2.8a20.55,20.55,0,0,0-4.89-.7,4.75,4.75,0,0,0-3.5,1.4,41,41,0,0,1-4.2,3.5,90.82,90.82,0,0,0-8.39,7.69Q127.2,48,123,49.43Z"/><path class="cls-2" d="M204.77,28.75l1.4-2.8q1.4-1.4,4.89-.7a29.24,29.24,0,0,0,9.09,0,37.52,37.52,0,0,0,9.09-2.1,15,15,0,0,0,4.89-2.8,4,4,0,0,1,2.8-1.4,6.81,6.81,0,0,1,3.5,1.4,6.74,6.74,0,0,1,2.8,3.5,4.63,4.63,0,0,1-.7,4.2q-1.4,2.1-3.5,4.89a74.15,74.15,0,0,0-4.2,6.29,28.39,28.39,0,0,1-6.29,7q-4.2,3.5-9.79,7.69t-21,8.39l-1.4-1.4a116.85,116.85,0,0,0,15.38-7.69,54.91,54.91,0,0,0,9.79-7.69,69.67,69.67,0,0,0,6.29-7,15.39,15.39,0,0,0,2.8-6.29q.7-3.49,0-4.2t-4.89,0a24.94,24.94,0,0,0-7,2.1,38.41,38.41,0,0,1-4.89,2.1,6.45,6.45,0,0,1-4.2,0A13.75,13.75,0,0,1,204.77,28.75Zm22.38,15.38,5.59-8.39q4.2,5.59,9.09,7a26.69,26.69,0,0,1,7,2.8,10.56,10.56,0,0,1,3.5,4.2,6.38,6.38,0,0,1,.7,4.89,4.2,4.2,0,0,1-2.8,2.8q-2.1.7-4.89-2.1L239,49Q235.53,45.54,227.14,44.13Z"/><path class="cls-2" d="M298.64,11.33l1.4-1.4q5.59,0,7.69,2.1a10.38,10.38,0,0,1,2.8,4.89q.7,2.8-3.5,6.29t-9.79,9.09a65.06,65.06,0,0,1-12.59,9.79,77.32,77.32,0,0,1-15.38,7l-1.4-1.4A54.63,54.63,0,0,0,281.16,40a55.81,55.81,0,0,0,10.49-10.49,82,82,0,0,1,7-8.39q2.8-2.8,2.8-5.59A4.48,4.48,0,0,0,298.64,11.33Zm-5.59,21,9.79-8.39q-1.4,8.39,0,11.89a10.2,10.2,0,0,1,.7,6.29,20.91,20.91,0,0,0,0,7.69,58,58,0,0,1,.7,7.69,5.7,5.7,0,0,1-1.4,4.2,4.74,4.74,0,0,1-3.5,1.4,2.74,2.74,0,0,1-2.8-2.1q-.7-2.1,0-8.39a44.82,44.82,0,0,0,0-11.19A21.77,21.77,0,0,0,293.05,32.31Z"/><path class="cls-3" d="M322.87,15.46a13.44,13.44,0,0,1-5.17,1.26,6.9,6.9,0,0,0-2.47.49,18.89,18.89,0,0,0-3.16,2.14,18.77,18.77,0,0,1-4.27,2.72.53.53,0,0,1-.6-.06c-.11-.14-.06-.35.13-.52a19.89,19.89,0,0,0,2.76-4.15c3.17-5.52,8-13.86,16.91-13.21,2.17.16,3.4,1.23,3.38,2.94,0,2.19-2.19,5.54-7,8.11Zm-7.93,1a8.18,8.18,0,0,1,3-.62,11.72,11.72,0,0,0,5.1-1.35c4.29-2.31,6.27-5.36,6.29-7.21,0-1.39-1-2.22-2.73-2.35-8-.59-12.38,7-15.55,12.5-.66,1.16-1.25,2.18-1.8,3,.77-.49,1.47-1,2.2-1.61a20.42,20.42,0,0,1,3.43-2.31Z"/></g></g></svg>